<?xml version="1.0" encoding="UTF-8" standalone="no"?>
<svg width="226.483mm" height="170.039mm"
 viewBox="0 0 642 482"
 xmlns="http://www.w3.org/2000/svg" xmlns:xlink="http://www.w3.org/1999/xlink"  version="1.2" baseProfile="tiny">
<title>Qt SVG Document</title>
<desc>Generated with Qt</desc>
<defs>
</defs>
<g fill="none" stroke="black" stroke-width="1" fill-rule="evenodd" stroke-linecap="square" stroke-linejoin="bevel" >

<g fill="none" stroke="#000000" stroke-opacity="1" stroke-width="1" stroke-linecap="square" stroke-linejoin="bevel" transform="matrix(1,0,0,1,0,0)"
font-family="Sans Serif" font-size="9" font-weight="400" font-style="normal" 
>
</g>

<g fill="none" stroke="#000000" stroke-opacity="1" stroke-width="1" stroke-linecap="square" stroke-linejoin="bevel" transform="matrix(1.00313,0,0,1.00313,0,0)"
font-family="Sans Serif" font-size="9" font-weight="400" font-style="normal" 
>
</g>

<g fill="none" stroke="#a0a0a4" stroke-opacity="1" stroke-dasharray="0.5,1" stroke-dashoffset="0" stroke-width="0.5" stroke-linecap="round" stroke-linejoin="round" transform="matrix(1.00313,0,0,1.00313,0,0)"
font-family="Sans Serif" font-size="9" font-weight="400" font-style="normal" 
>
<polyline fill="none" vector-effect="none" points="45.5,406.5 618.5,406.5 " />
</g>

<g fill="none" stroke="#000000" stroke-opacity="1" stroke-width="1" stroke-linecap="round" stroke-linejoin="round" transform="matrix(1.00313,0,0,1.00313,0,0)"
font-family="Sans Serif" font-size="9" font-weight="400" font-style="normal" 
>
<polyline fill="none" vector-effect="none" points="45.5,406.5 51.5,406.5 " />
<polyline fill="none" vector-effect="none" points="618.5,406.5 612.5,406.5 " />
</g>

<g fill="none" stroke="#000000" stroke-opacity="1" stroke-width="1" stroke-linecap="square" stroke-linejoin="bevel" transform="matrix(1.00313,0,0,1.00313,0,0)"
font-family="Sans Serif" font-size="9" font-weight="400" font-style="normal" 
>
</g>

<g fill="none" stroke="#000000" stroke-opacity="1" stroke-width="1" stroke-linecap="square" stroke-linejoin="bevel" transform="matrix(1.00313,0,0,1.00313,16.05,412.786)"
font-family="Sans Serif" font-size="9" font-weight="400" font-style="normal" 
>
</g>

<g fill="none" stroke="#000000" stroke-opacity="1" stroke-width="1" stroke-linecap="square" stroke-linejoin="bevel" transform="matrix(1.00313,0,0,1.00313,16.05,412.786)"
font-family="Sans Serif" font-size="9" font-weight="400" font-style="normal" 
>
</g>

<g fill="none" stroke="#000000" stroke-opacity="1" stroke-width="1" stroke-linecap="square" stroke-linejoin="bevel" transform="matrix(1.00313,0,0,1.00313,16.05,412.786)"
font-family="Sans Serif" font-size="9" font-weight="400" font-style="normal" 
>
</g>

<g fill="none" stroke="#000000" stroke-opacity="1" stroke-width="1" stroke-linecap="square" stroke-linejoin="bevel" transform="matrix(1.00313,0,0,1.00313,16.05,412.786)"
font-family="Sans Serif" font-size="9" font-weight="400" font-style="normal" 
>
</g>

<g fill="none" stroke="#000000" stroke-opacity="1" stroke-width="1" stroke-linecap="square" stroke-linejoin="bevel" transform="matrix(1.00313,0,0,1.00313,16.05,412.786)"
font-family="Sans Serif" font-size="9" font-weight="400" font-style="normal" 
>
</g>

<g fill="none" stroke="#000000" stroke-opacity="1" stroke-width="1" stroke-linecap="square" stroke-linejoin="bevel" transform="matrix(1.00313,0,0,1.00313,16.05,412.786)"
font-family="Sans" font-size="9" font-weight="400" font-style="normal" 
>
<text fill="#000000" fill-opacity="1" stroke="none" xml:space="preserve" x="0" y="0" font-family="Sans" font-size="9" font-weight="400" font-style="normal" 
 >-0.4</text>
</g>

<g fill="none" stroke="#000000" stroke-opacity="1" stroke-width="1" stroke-linecap="square" stroke-linejoin="bevel" transform="matrix(1.00313,0,0,1.00313,16.05,412.786)"
font-family="Sans Serif" font-size="9" font-weight="400" font-style="normal" 
>
</g>

<g fill="none" stroke="#000000" stroke-opacity="1" stroke-width="1" stroke-linecap="square" stroke-linejoin="bevel" transform="matrix(1.00313,0,0,1.00313,0,0)"
font-family="Sans Serif" font-size="9" font-weight="400" font-style="normal" 
>
</g>

<g fill="none" stroke="#a0a0a4" stroke-opacity="1" stroke-dasharray="0.5,1" stroke-dashoffset="0" stroke-width="0.5" stroke-linecap="round" stroke-linejoin="round" transform="matrix(1.00313,0,0,1.00313,0,0)"
font-family="Sans Serif" font-size="9" font-weight="400" font-style="normal" 
>
<polyline fill="none" vector-effect="none" points="45.5,319.5 618.5,319.5 " />
</g>

<g fill="none" stroke="#000000" stroke-opacity="1" stroke-width="1" stroke-linecap="round" stroke-linejoin="round" transform="matrix(1.00313,0,0,1.00313,0,0)"
font-family="Sans Serif" font-size="9" font-weight="400" font-style="normal" 
>
<polyline fill="none" vector-effect="none" points="45.5,319.5 51.5,319.5 " />
<polyline fill="none" vector-effect="none" points="618.5,319.5 612.5,319.5 " />
</g>

<g fill="none" stroke="#000000" stroke-opacity="1" stroke-width="1" stroke-linecap="square" stroke-linejoin="bevel" transform="matrix(1.00313,0,0,1.00313,0,0)"
font-family="Sans Serif" font-size="9" font-weight="400" font-style="normal" 
>
</g>

<g fill="none" stroke="#000000" stroke-opacity="1" stroke-width="1" stroke-linecap="square" stroke-linejoin="bevel" transform="matrix(1.00313,0,0,1.00313,16.05,325.514)"
font-family="Sans Serif" font-size="9" font-weight="400" font-style="normal" 
>
</g>

<g fill="none" stroke="#000000" stroke-opacity="1" stroke-width="1" stroke-linecap="square" stroke-linejoin="bevel" transform="matrix(1.00313,0,0,1.00313,16.05,325.514)"
font-family="Sans Serif" font-size="9" font-weight="400" font-style="normal" 
>
</g>

<g fill="none" stroke="#000000" stroke-opacity="1" stroke-width="1" stroke-linecap="square" stroke-linejoin="bevel" transform="matrix(1.00313,0,0,1.00313,16.05,325.514)"
font-family="Sans Serif" font-size="9" font-weight="400" font-style="normal" 
>
</g>

<g fill="none" stroke="#000000" stroke-opacity="1" stroke-width="1" stroke-linecap="square" stroke-linejoin="bevel" transform="matrix(1.00313,0,0,1.00313,16.05,325.514)"
font-family="Sans Serif" font-size="9" font-weight="400" font-style="normal" 
>
</g>

<g fill="none" stroke="#000000" stroke-opacity="1" stroke-width="1" stroke-linecap="square" stroke-linejoin="bevel" transform="matrix(1.00313,0,0,1.00313,16.05,325.514)"
font-family="Sans Serif" font-size="9" font-weight="400" font-style="normal" 
>
</g>

<g fill="none" stroke="#000000" stroke-opacity="1" stroke-width="1" stroke-linecap="square" stroke-linejoin="bevel" transform="matrix(1.00313,0,0,1.00313,16.05,325.514)"
font-family="Sans" font-size="9" font-weight="400" font-style="normal" 
>
<text fill="#000000" fill-opacity="1" stroke="none" xml:space="preserve" x="0" y="0" font-family="Sans" font-size="9" font-weight="400" font-style="normal" 
 >-0.2</text>
</g>

<g fill="none" stroke="#000000" stroke-opacity="1" stroke-width="1" stroke-linecap="square" stroke-linejoin="bevel" transform="matrix(1.00313,0,0,1.00313,16.05,325.514)"
font-family="Sans Serif" font-size="9" font-weight="400" font-style="normal" 
>
</g>

<g fill="none" stroke="#000000" stroke-opacity="1" stroke-width="1" stroke-linecap="square" stroke-linejoin="bevel" transform="matrix(1.00313,0,0,1.00313,0,0)"
font-family="Sans Serif" font-size="9" font-weight="400" font-style="normal" 
>
</g>

<g fill="none" stroke="#a0a0a4" stroke-opacity="1" stroke-dasharray="0.5,1" stroke-dashoffset="0" stroke-width="0.5" stroke-linecap="round" stroke-linejoin="round" transform="matrix(1.00313,0,0,1.00313,0,0)"
font-family="Sans Serif" font-size="9" font-weight="400" font-style="normal" 
>
<polyline fill="none" vector-effect="none" points="45.5,232.5 618.5,232.5 " />
</g>

<g fill="none" stroke="#000000" stroke-opacity="1" stroke-width="1" stroke-linecap="round" stroke-linejoin="round" transform="matrix(1.00313,0,0,1.00313,0,0)"
font-family="Sans Serif" font-size="9" font-weight="400" font-style="normal" 
>
<polyline fill="none" vector-effect="none" points="45.5,232.5 51.5,232.5 " />
<polyline fill="none" vector-effect="none" points="618.5,232.5 612.5,232.5 " />
</g>

<g fill="none" stroke="#000000" stroke-opacity="1" stroke-width="1" stroke-linecap="square" stroke-linejoin="bevel" transform="matrix(1.00313,0,0,1.00313,0,0)"
font-family="Sans Serif" font-size="9" font-weight="400" font-style="normal" 
>
</g>

<g fill="none" stroke="#000000" stroke-opacity="1" stroke-width="1" stroke-linecap="square" stroke-linejoin="bevel" transform="matrix(1.00313,0,0,1.00313,28.0875,238.242)"
font-family="Sans Serif" font-size="9" font-weight="400" font-style="normal" 
>
</g>

<g fill="none" stroke="#000000" stroke-opacity="1" stroke-width="1" stroke-linecap="square" stroke-linejoin="bevel" transform="matrix(1.00313,0,0,1.00313,28.0875,238.242)"
font-family="Sans Serif" font-size="9" font-weight="400" font-style="normal" 
>
</g>

<g fill="none" stroke="#000000" stroke-opacity="1" stroke-width="1" stroke-linecap="square" stroke-linejoin="bevel" transform="matrix(1.00313,0,0,1.00313,28.0875,238.242)"
font-family="Sans Serif" font-size="9" font-weight="400" font-style="normal" 
>
</g>

<g fill="none" stroke="#000000" stroke-opacity="1" stroke-width="1" stroke-linecap="square" stroke-linejoin="bevel" transform="matrix(1.00313,0,0,1.00313,28.0875,238.242)"
font-family="Sans Serif" font-size="9" font-weight="400" font-style="normal" 
>
</g>

<g fill="none" stroke="#000000" stroke-opacity="1" stroke-width="1" stroke-linecap="square" stroke-linejoin="bevel" transform="matrix(1.00313,0,0,1.00313,28.0875,238.242)"
font-family="Sans Serif" font-size="9" font-weight="400" font-style="normal" 
>
</g>

<g fill="none" stroke="#000000" stroke-opacity="1" stroke-width="1" stroke-linecap="square" stroke-linejoin="bevel" transform="matrix(1.00313,0,0,1.00313,28.0875,238.242)"
font-family="Sans" font-size="9" font-weight="400" font-style="normal" 
>
<text fill="#000000" fill-opacity="1" stroke="none" xml:space="preserve" x="0" y="0" font-family="Sans" font-size="9" font-weight="400" font-style="normal" 
 > 0</text>
</g>

<g fill="none" stroke="#000000" stroke-opacity="1" stroke-width="1" stroke-linecap="square" stroke-linejoin="bevel" transform="matrix(1.00313,0,0,1.00313,28.0875,238.242)"
font-family="Sans Serif" font-size="9" font-weight="400" font-style="normal" 
>
</g>

<g fill="none" stroke="#000000" stroke-opacity="1" stroke-width="1" stroke-linecap="square" stroke-linejoin="bevel" transform="matrix(1.00313,0,0,1.00313,0,0)"
font-family="Sans Serif" font-size="9" font-weight="400" font-style="normal" 
>
</g>

<g fill="none" stroke="#a0a0a4" stroke-opacity="1" stroke-dasharray="0.5,1" stroke-dashoffset="0" stroke-width="0.5" stroke-linecap="round" stroke-linejoin="round" transform="matrix(1.00313,0,0,1.00313,0,0)"
font-family="Sans Serif" font-size="9" font-weight="400" font-style="normal" 
>
<polyline fill="none" vector-effect="none" points="45.5,145.5 618.5,145.5 " />
</g>

<g fill="none" stroke="#000000" stroke-opacity="1" stroke-width="1" stroke-linecap="round" stroke-linejoin="round" transform="matrix(1.00313,0,0,1.00313,0,0)"
font-family="Sans Serif" font-size="9" font-weight="400" font-style="normal" 
>
<polyline fill="none" vector-effect="none" points="45.5,145.5 51.5,145.5 " />
<polyline fill="none" vector-effect="none" points="618.5,145.5 612.5,145.5 " />
</g>

<g fill="none" stroke="#000000" stroke-opacity="1" stroke-width="1" stroke-linecap="square" stroke-linejoin="bevel" transform="matrix(1.00313,0,0,1.00313,0,0)"
font-family="Sans Serif" font-size="9" font-weight="400" font-style="normal" 
>
</g>

<g fill="none" stroke="#000000" stroke-opacity="1" stroke-width="1" stroke-linecap="square" stroke-linejoin="bevel" transform="matrix(1.00313,0,0,1.00313,16.05,150.97)"
font-family="Sans Serif" font-size="9" font-weight="400" font-style="normal" 
>
</g>

<g fill="none" stroke="#000000" stroke-opacity="1" stroke-width="1" stroke-linecap="square" stroke-linejoin="bevel" transform="matrix(1.00313,0,0,1.00313,16.05,150.97)"
font-family="Sans Serif" font-size="9" font-weight="400" font-style="normal" 
>
</g>

<g fill="none" stroke="#000000" stroke-opacity="1" stroke-width="1" stroke-linecap="square" stroke-linejoin="bevel" transform="matrix(1.00313,0,0,1.00313,16.05,150.97)"
font-family="Sans Serif" font-size="9" font-weight="400" font-style="normal" 
>
</g>

<g fill="none" stroke="#000000" stroke-opacity="1" stroke-width="1" stroke-linecap="square" stroke-linejoin="bevel" transform="matrix(1.00313,0,0,1.00313,16.05,150.97)"
font-family="Sans Serif" font-size="9" font-weight="400" font-style="normal" 
>
</g>

<g fill="none" stroke="#000000" stroke-opacity="1" stroke-width="1" stroke-linecap="square" stroke-linejoin="bevel" transform="matrix(1.00313,0,0,1.00313,16.05,150.97)"
font-family="Sans Serif" font-size="9" font-weight="400" font-style="normal" 
>
</g>

<g fill="none" stroke="#000000" stroke-opacity="1" stroke-width="1" stroke-linecap="square" stroke-linejoin="bevel" transform="matrix(1.00313,0,0,1.00313,16.05,150.97)"
font-family="Sans" font-size="9" font-weight="400" font-style="normal" 
>
<text fill="#000000" fill-opacity="1" stroke="none" xml:space="preserve" x="0" y="0" font-family="Sans" font-size="9" font-weight="400" font-style="normal" 
 > 0.2</text>
</g>

<g fill="none" stroke="#000000" stroke-opacity="1" stroke-width="1" stroke-linecap="square" stroke-linejoin="bevel" transform="matrix(1.00313,0,0,1.00313,16.05,150.97)"
font-family="Sans Serif" font-size="9" font-weight="400" font-style="normal" 
>
</g>

<g fill="none" stroke="#000000" stroke-opacity="1" stroke-width="1" stroke-linecap="square" stroke-linejoin="bevel" transform="matrix(1.00313,0,0,1.00313,0,0)"
font-family="Sans Serif" font-size="9" font-weight="400" font-style="normal" 
>
</g>

<g fill="none" stroke="#a0a0a4" stroke-opacity="1" stroke-dasharray="0.5,1" stroke-dashoffset="0" stroke-width="0.5" stroke-linecap="round" stroke-linejoin="round" transform="matrix(1.00313,0,0,1.00313,0,0)"
font-family="Sans Serif" font-size="9" font-weight="400" font-style="normal" 
>
<polyline fill="none" vector-effect="none" points="45.5,58.5 458.5,58.5 " />
<polyline fill="none" vector-effect="none" points="611.5,58.5 618.5,58.5 " />
</g>

<g fill="none" stroke="#000000" stroke-opacity="1" stroke-width="1" stroke-linecap="round" stroke-linejoin="round" transform="matrix(1.00313,0,0,1.00313,0,0)"
font-family="Sans Serif" font-size="9" font-weight="400" font-style="normal" 
>
<polyline fill="none" vector-effect="none" points="45.5,58.5 51.5,58.5 " />
<polyline fill="none" vector-effect="none" points="618.5,58.5 612.5,58.5 " />
</g>

<g fill="none" stroke="#000000" stroke-opacity="1" stroke-width="1" stroke-linecap="square" stroke-linejoin="bevel" transform="matrix(1.00313,0,0,1.00313,0,0)"
font-family="Sans Serif" font-size="9" font-weight="400" font-style="normal" 
>
</g>

<g fill="none" stroke="#000000" stroke-opacity="1" stroke-width="1" stroke-linecap="square" stroke-linejoin="bevel" transform="matrix(1.00313,0,0,1.00313,16.05,63.6984)"
font-family="Sans Serif" font-size="9" font-weight="400" font-style="normal" 
>
</g>

<g fill="none" stroke="#000000" stroke-opacity="1" stroke-width="1" stroke-linecap="square" stroke-linejoin="bevel" transform="matrix(1.00313,0,0,1.00313,16.05,63.6984)"
font-family="Sans Serif" font-size="9" font-weight="400" font-style="normal" 
>
</g>

<g fill="none" stroke="#000000" stroke-opacity="1" stroke-width="1" stroke-linecap="square" stroke-linejoin="bevel" transform="matrix(1.00313,0,0,1.00313,16.05,63.6984)"
font-family="Sans Serif" font-size="9" font-weight="400" font-style="normal" 
>
</g>

<g fill="none" stroke="#000000" stroke-opacity="1" stroke-width="1" stroke-linecap="square" stroke-linejoin="bevel" transform="matrix(1.00313,0,0,1.00313,16.05,63.6984)"
font-family="Sans Serif" font-size="9" font-weight="400" font-style="normal" 
>
</g>

<g fill="none" stroke="#000000" stroke-opacity="1" stroke-width="1" stroke-linecap="square" stroke-linejoin="bevel" transform="matrix(1.00313,0,0,1.00313,16.05,63.6984)"
font-family="Sans Serif" font-size="9" font-weight="400" font-style="normal" 
>
</g>

<g fill="none" stroke="#000000" stroke-opacity="1" stroke-width="1" stroke-linecap="square" stroke-linejoin="bevel" transform="matrix(1.00313,0,0,1.00313,16.05,63.6984)"
font-family="Sans" font-size="9" font-weight="400" font-style="normal" 
>
<text fill="#000000" fill-opacity="1" stroke="none" xml:space="preserve" x="0" y="0" font-family="Sans" font-size="9" font-weight="400" font-style="normal" 
 > 0.4</text>
</g>

<g fill="none" stroke="#000000" stroke-opacity="1" stroke-width="1" stroke-linecap="square" stroke-linejoin="bevel" transform="matrix(1.00313,0,0,1.00313,16.05,63.6984)"
font-family="Sans Serif" font-size="9" font-weight="400" font-style="normal" 
>
</g>

<g fill="none" stroke="#000000" stroke-opacity="1" stroke-width="1" stroke-linecap="square" stroke-linejoin="bevel" transform="matrix(1.00313,0,0,1.00313,0,0)"
font-family="Sans Serif" font-size="9" font-weight="400" font-style="normal" 
>
</g>

<g fill="none" stroke="#a0a0a4" stroke-opacity="1" stroke-dasharray="0.5,1" stroke-dashoffset="0" stroke-width="0.5" stroke-linecap="round" stroke-linejoin="round" transform="matrix(1.00313,0,0,1.00313,0,0)"
font-family="Sans Serif" font-size="9" font-weight="400" font-style="normal" 
>
<polyline fill="none" vector-effect="none" points="45.5,450.5 45.5,15.5 " />
</g>

<g fill="none" stroke="#000000" stroke-opacity="1" stroke-width="1" stroke-linecap="round" stroke-linejoin="round" transform="matrix(1.00313,0,0,1.00313,0,0)"
font-family="Sans Serif" font-size="9" font-weight="400" font-style="normal" 
>
<polyline fill="none" vector-effect="none" points="45.5,450.5 45.5,444.5 " />
<polyline fill="none" vector-effect="none" points="45.5,15.5 45.5,21.5 " />
</g>

<g fill="none" stroke="#000000" stroke-opacity="1" stroke-width="1" stroke-linecap="square" stroke-linejoin="bevel" transform="matrix(1.00313,0,0,1.00313,0,0)"
font-family="Sans Serif" font-size="9" font-weight="400" font-style="normal" 
>
</g>

<g fill="none" stroke="#000000" stroke-opacity="1" stroke-width="1" stroke-linecap="square" stroke-linejoin="bevel" transform="matrix(1.00313,0,0,1.00313,40.6266,470.967)"
font-family="Sans Serif" font-size="9" font-weight="400" font-style="normal" 
>
</g>

<g fill="none" stroke="#000000" stroke-opacity="1" stroke-width="1" stroke-linecap="square" stroke-linejoin="bevel" transform="matrix(1.00313,0,0,1.00313,40.6266,470.967)"
font-family="Sans Serif" font-size="9" font-weight="400" font-style="normal" 
>
</g>

<g fill="none" stroke="#000000" stroke-opacity="1" stroke-width="1" stroke-linecap="square" stroke-linejoin="bevel" transform="matrix(1.00313,0,0,1.00313,40.6266,470.967)"
font-family="Sans Serif" font-size="9" font-weight="400" font-style="normal" 
>
</g>

<g fill="none" stroke="#000000" stroke-opacity="1" stroke-width="1" stroke-linecap="square" stroke-linejoin="bevel" transform="matrix(1.00313,0,0,1.00313,40.6266,470.967)"
font-family="Sans Serif" font-size="9" font-weight="400" font-style="normal" 
>
</g>

<g fill="none" stroke="#000000" stroke-opacity="1" stroke-width="1" stroke-linecap="square" stroke-linejoin="bevel" transform="matrix(1.00313,0,0,1.00313,40.6266,470.967)"
font-family="Sans Serif" font-size="9" font-weight="400" font-style="normal" 
>
</g>

<g fill="none" stroke="#000000" stroke-opacity="1" stroke-width="1" stroke-linecap="square" stroke-linejoin="bevel" transform="matrix(1.00313,0,0,1.00313,40.6266,470.967)"
font-family="Sans" font-size="9" font-weight="400" font-style="normal" 
>
<text fill="#000000" fill-opacity="1" stroke="none" xml:space="preserve" x="0" y="0" font-family="Sans" font-size="9" font-weight="400" font-style="normal" 
 > 0</text>
</g>

<g fill="none" stroke="#000000" stroke-opacity="1" stroke-width="1" stroke-linecap="square" stroke-linejoin="bevel" transform="matrix(1.00313,0,0,1.00313,40.6266,470.967)"
font-family="Sans Serif" font-size="9" font-weight="400" font-style="normal" 
>
</g>

<g fill="none" stroke="#000000" stroke-opacity="1" stroke-width="1" stroke-linecap="square" stroke-linejoin="bevel" transform="matrix(1.00313,0,0,1.00313,0,0)"
font-family="Sans Serif" font-size="9" font-weight="400" font-style="normal" 
>
</g>

<g fill="none" stroke="#a0a0a4" stroke-opacity="1" stroke-dasharray="0.5,1" stroke-dashoffset="0" stroke-width="0.5" stroke-linecap="round" stroke-linejoin="round" transform="matrix(1.00313,0,0,1.00313,0,0)"
font-family="Sans Serif" font-size="9" font-weight="400" font-style="normal" 
>
<polyline fill="none" vector-effect="none" points="160.5,450.5 160.5,15.5 " />
</g>

<g fill="none" stroke="#000000" stroke-opacity="1" stroke-width="1" stroke-linecap="round" stroke-linejoin="round" transform="matrix(1.00313,0,0,1.00313,0,0)"
font-family="Sans Serif" font-size="9" font-weight="400" font-style="normal" 
>
<polyline fill="none" vector-effect="none" points="160.5,450.5 160.5,444.5 " />
<polyline fill="none" vector-effect="none" points="160.5,15.5 160.5,21.5 " />
</g>

<g fill="none" stroke="#000000" stroke-opacity="1" stroke-width="1" stroke-linecap="square" stroke-linejoin="bevel" transform="matrix(1.00313,0,0,1.00313,0,0)"
font-family="Sans Serif" font-size="9" font-weight="400" font-style="normal" 
>
</g>

<g fill="none" stroke="#000000" stroke-opacity="1" stroke-width="1" stroke-linecap="square" stroke-linejoin="bevel" transform="matrix(1.00313,0,0,1.00313,146.958,470.967)"
font-family="Sans Serif" font-size="9" font-weight="400" font-style="normal" 
>
</g>

<g fill="none" stroke="#000000" stroke-opacity="1" stroke-width="1" stroke-linecap="square" stroke-linejoin="bevel" transform="matrix(1.00313,0,0,1.00313,146.958,470.967)"
font-family="Sans Serif" font-size="9" font-weight="400" font-style="normal" 
>
</g>

<g fill="none" stroke="#000000" stroke-opacity="1" stroke-width="1" stroke-linecap="square" stroke-linejoin="bevel" transform="matrix(1.00313,0,0,1.00313,146.958,470.967)"
font-family="Sans Serif" font-size="9" font-weight="400" font-style="normal" 
>
</g>

<g fill="none" stroke="#000000" stroke-opacity="1" stroke-width="1" stroke-linecap="square" stroke-linejoin="bevel" transform="matrix(1.00313,0,0,1.00313,146.958,470.967)"
font-family="Sans Serif" font-size="9" font-weight="400" font-style="normal" 
>
</g>

<g fill="none" stroke="#000000" stroke-opacity="1" stroke-width="1" stroke-linecap="square" stroke-linejoin="bevel" transform="matrix(1.00313,0,0,1.00313,146.958,470.967)"
font-family="Sans Serif" font-size="9" font-weight="400" font-style="normal" 
>
</g>

<g fill="none" stroke="#000000" stroke-opacity="1" stroke-width="1" stroke-linecap="square" stroke-linejoin="bevel" transform="matrix(1.00313,0,0,1.00313,146.958,470.967)"
font-family="Sans" font-size="9" font-weight="400" font-style="normal" 
>
<text fill="#000000" fill-opacity="1" stroke="none" xml:space="preserve" x="0" y="0" font-family="Sans" font-size="9" font-weight="400" font-style="normal" 
 > 100</text>
</g>

<g fill="none" stroke="#000000" stroke-opacity="1" stroke-width="1" stroke-linecap="square" stroke-linejoin="bevel" transform="matrix(1.00313,0,0,1.00313,146.958,470.967)"
font-family="Sans Serif" font-size="9" font-weight="400" font-style="normal" 
>
</g>

<g fill="none" stroke="#000000" stroke-opacity="1" stroke-width="1" stroke-linecap="square" stroke-linejoin="bevel" transform="matrix(1.00313,0,0,1.00313,0,0)"
font-family="Sans Serif" font-size="9" font-weight="400" font-style="normal" 
>
</g>

<g fill="none" stroke="#a0a0a4" stroke-opacity="1" stroke-dasharray="0.5,1" stroke-dashoffset="0" stroke-width="0.5" stroke-linecap="round" stroke-linejoin="round" transform="matrix(1.00313,0,0,1.00313,0,0)"
font-family="Sans Serif" font-size="9" font-weight="400" font-style="normal" 
>
<polyline fill="none" vector-effect="none" points="274.5,450.5 274.5,15.5 " />
</g>

<g fill="none" stroke="#000000" stroke-opacity="1" stroke-width="1" stroke-linecap="round" stroke-linejoin="round" transform="matrix(1.00313,0,0,1.00313,0,0)"
font-family="Sans Serif" font-size="9" font-weight="400" font-style="normal" 
>
<polyline fill="none" vector-effect="none" points="274.5,450.5 274.5,444.5 " />
<polyline fill="none" vector-effect="none" points="274.5,15.5 274.5,21.5 " />
</g>

<g fill="none" stroke="#000000" stroke-opacity="1" stroke-width="1" stroke-linecap="square" stroke-linejoin="bevel" transform="matrix(1.00313,0,0,1.00313,0,0)"
font-family="Sans Serif" font-size="9" font-weight="400" font-style="normal" 
>
</g>

<g fill="none" stroke="#000000" stroke-opacity="1" stroke-width="1" stroke-linecap="square" stroke-linejoin="bevel" transform="matrix(1.00313,0,0,1.00313,262.317,470.967)"
font-family="Sans Serif" font-size="9" font-weight="400" font-style="normal" 
>
</g>

<g fill="none" stroke="#000000" stroke-opacity="1" stroke-width="1" stroke-linecap="square" stroke-linejoin="bevel" transform="matrix(1.00313,0,0,1.00313,262.317,470.967)"
font-family="Sans Serif" font-size="9" font-weight="400" font-style="normal" 
>
</g>

<g fill="none" stroke="#000000" stroke-opacity="1" stroke-width="1" stroke-linecap="square" stroke-linejoin="bevel" transform="matrix(1.00313,0,0,1.00313,262.317,470.967)"
font-family="Sans Serif" font-size="9" font-weight="400" font-style="normal" 
>
</g>

<g fill="none" stroke="#000000" stroke-opacity="1" stroke-width="1" stroke-linecap="square" stroke-linejoin="bevel" transform="matrix(1.00313,0,0,1.00313,262.317,470.967)"
font-family="Sans Serif" font-size="9" font-weight="400" font-style="normal" 
>
</g>

<g fill="none" stroke="#000000" stroke-opacity="1" stroke-width="1" stroke-linecap="square" stroke-linejoin="bevel" transform="matrix(1.00313,0,0,1.00313,262.317,470.967)"
font-family="Sans Serif" font-size="9" font-weight="400" font-style="normal" 
>
</g>

<g fill="none" stroke="#000000" stroke-opacity="1" stroke-width="1" stroke-linecap="square" stroke-linejoin="bevel" transform="matrix(1.00313,0,0,1.00313,262.317,470.967)"
font-family="Sans" font-size="9" font-weight="400" font-style="normal" 
>
<text fill="#000000" fill-opacity="1" stroke="none" xml:space="preserve" x="0" y="0" font-family="Sans" font-size="9" font-weight="400" font-style="normal" 
 > 200</text>
</g>

<g fill="none" stroke="#000000" stroke-opacity="1" stroke-width="1" stroke-linecap="square" stroke-linejoin="bevel" transform="matrix(1.00313,0,0,1.00313,262.317,470.967)"
font-family="Sans Serif" font-size="9" font-weight="400" font-style="normal" 
>
</g>

<g fill="none" stroke="#000000" stroke-opacity="1" stroke-width="1" stroke-linecap="square" stroke-linejoin="bevel" transform="matrix(1.00313,0,0,1.00313,0,0)"
font-family="Sans Serif" font-size="9" font-weight="400" font-style="normal" 
>
</g>

<g fill="none" stroke="#a0a0a4" stroke-opacity="1" stroke-dasharray="0.5,1" stroke-dashoffset="0" stroke-width="0.5" stroke-linecap="round" stroke-linejoin="round" transform="matrix(1.00313,0,0,1.00313,0,0)"
font-family="Sans Serif" font-size="9" font-weight="400" font-style="normal" 
>
<polyline fill="none" vector-effect="none" points="389.5,450.5 389.5,15.5 " />
</g>

<g fill="none" stroke="#000000" stroke-opacity="1" stroke-width="1" stroke-linecap="round" stroke-linejoin="round" transform="matrix(1.00313,0,0,1.00313,0,0)"
font-family="Sans Serif" font-size="9" font-weight="400" font-style="normal" 
>
<polyline fill="none" vector-effect="none" points="389.5,450.5 389.5,444.5 " />
<polyline fill="none" vector-effect="none" points="389.5,15.5 389.5,21.5 " />
</g>

<g fill="none" stroke="#000000" stroke-opacity="1" stroke-width="1" stroke-linecap="square" stroke-linejoin="bevel" transform="matrix(1.00313,0,0,1.00313,0,0)"
font-family="Sans Serif" font-size="9" font-weight="400" font-style="normal" 
>
</g>

<g fill="none" stroke="#000000" stroke-opacity="1" stroke-width="1" stroke-linecap="square" stroke-linejoin="bevel" transform="matrix(1.00313,0,0,1.00313,377.677,470.967)"
font-family="Sans Serif" font-size="9" font-weight="400" font-style="normal" 
>
</g>

<g fill="none" stroke="#000000" stroke-opacity="1" stroke-width="1" stroke-linecap="square" stroke-linejoin="bevel" transform="matrix(1.00313,0,0,1.00313,377.677,470.967)"
font-family="Sans Serif" font-size="9" font-weight="400" font-style="normal" 
>
</g>

<g fill="none" stroke="#000000" stroke-opacity="1" stroke-width="1" stroke-linecap="square" stroke-linejoin="bevel" transform="matrix(1.00313,0,0,1.00313,377.677,470.967)"
font-family="Sans Serif" font-size="9" font-weight="400" font-style="normal" 
>
</g>

<g fill="none" stroke="#000000" stroke-opacity="1" stroke-width="1" stroke-linecap="square" stroke-linejoin="bevel" transform="matrix(1.00313,0,0,1.00313,377.677,470.967)"
font-family="Sans Serif" font-size="9" font-weight="400" font-style="normal" 
>
</g>

<g fill="none" stroke="#000000" stroke-opacity="1" stroke-width="1" stroke-linecap="square" stroke-linejoin="bevel" transform="matrix(1.00313,0,0,1.00313,377.677,470.967)"
font-family="Sans Serif" font-size="9" font-weight="400" font-style="normal" 
>
</g>

<g fill="none" stroke="#000000" stroke-opacity="1" stroke-width="1" stroke-linecap="square" stroke-linejoin="bevel" transform="matrix(1.00313,0,0,1.00313,377.677,470.967)"
font-family="Sans" font-size="9" font-weight="400" font-style="normal" 
>
<text fill="#000000" fill-opacity="1" stroke="none" xml:space="preserve" x="0" y="0" font-family="Sans" font-size="9" font-weight="400" font-style="normal" 
 > 300</text>
</g>

<g fill="none" stroke="#000000" stroke-opacity="1" stroke-width="1" stroke-linecap="square" stroke-linejoin="bevel" transform="matrix(1.00313,0,0,1.00313,377.677,470.967)"
font-family="Sans Serif" font-size="9" font-weight="400" font-style="normal" 
>
</g>

<g fill="none" stroke="#000000" stroke-opacity="1" stroke-width="1" stroke-linecap="square" stroke-linejoin="bevel" transform="matrix(1.00313,0,0,1.00313,0,0)"
font-family="Sans Serif" font-size="9" font-weight="400" font-style="normal" 
>
</g>

<g fill="none" stroke="#a0a0a4" stroke-opacity="1" stroke-dasharray="0.5,1" stroke-dashoffset="0" stroke-width="0.5" stroke-linecap="round" stroke-linejoin="round" transform="matrix(1.00313,0,0,1.00313,0,0)"
font-family="Sans Serif" font-size="9" font-weight="400" font-style="normal" 
>
<polyline fill="none" vector-effect="none" points="504.5,450.5 504.5,81.5 " />
<polyline fill="none" vector-effect="none" points="504.5,21.5 504.5,15.5 " />
</g>

<g fill="none" stroke="#000000" stroke-opacity="1" stroke-width="1" stroke-linecap="round" stroke-linejoin="round" transform="matrix(1.00313,0,0,1.00313,0,0)"
font-family="Sans Serif" font-size="9" font-weight="400" font-style="normal" 
>
<polyline fill="none" vector-effect="none" points="504.5,450.5 504.5,444.5 " />
<polyline fill="none" vector-effect="none" points="504.5,15.5 504.5,21.5 " />
</g>

<g fill="none" stroke="#000000" stroke-opacity="1" stroke-width="1" stroke-linecap="square" stroke-linejoin="bevel" transform="matrix(1.00313,0,0,1.00313,0,0)"
font-family="Sans Serif" font-size="9" font-weight="400" font-style="normal" 
>
</g>

<g fill="none" stroke="#000000" stroke-opacity="1" stroke-width="1" stroke-linecap="square" stroke-linejoin="bevel" transform="matrix(1.00313,0,0,1.00313,492.033,470.967)"
font-family="Sans Serif" font-size="9" font-weight="400" font-style="normal" 
>
</g>

<g fill="none" stroke="#000000" stroke-opacity="1" stroke-width="1" stroke-linecap="square" stroke-linejoin="bevel" transform="matrix(1.00313,0,0,1.00313,492.033,470.967)"
font-family="Sans Serif" font-size="9" font-weight="400" font-style="normal" 
>
</g>

<g fill="none" stroke="#000000" stroke-opacity="1" stroke-width="1" stroke-linecap="square" stroke-linejoin="bevel" transform="matrix(1.00313,0,0,1.00313,492.033,470.967)"
font-family="Sans Serif" font-size="9" font-weight="400" font-style="normal" 
>
</g>

<g fill="none" stroke="#000000" stroke-opacity="1" stroke-width="1" stroke-linecap="square" stroke-linejoin="bevel" transform="matrix(1.00313,0,0,1.00313,492.033,470.967)"
font-family="Sans Serif" font-size="9" font-weight="400" font-style="normal" 
>
</g>

<g fill="none" stroke="#000000" stroke-opacity="1" stroke-width="1" stroke-linecap="square" stroke-linejoin="bevel" transform="matrix(1.00313,0,0,1.00313,492.033,470.967)"
font-family="Sans Serif" font-size="9" font-weight="400" font-style="normal" 
>
</g>

<g fill="none" stroke="#000000" stroke-opacity="1" stroke-width="1" stroke-linecap="square" stroke-linejoin="bevel" transform="matrix(1.00313,0,0,1.00313,492.033,470.967)"
font-family="Sans" font-size="9" font-weight="400" font-style="normal" 
>
<text fill="#000000" fill-opacity="1" stroke="none" xml:space="preserve" x="0" y="0" font-family="Sans" font-size="9" font-weight="400" font-style="normal" 
 > 400</text>
</g>

<g fill="none" stroke="#000000" stroke-opacity="1" stroke-width="1" stroke-linecap="square" stroke-linejoin="bevel" transform="matrix(1.00313,0,0,1.00313,492.033,470.967)"
font-family="Sans Serif" font-size="9" font-weight="400" font-style="normal" 
>
</g>

<g fill="none" stroke="#000000" stroke-opacity="1" stroke-width="1" stroke-linecap="square" stroke-linejoin="bevel" transform="matrix(1.00313,0,0,1.00313,0,0)"
font-family="Sans Serif" font-size="9" font-weight="400" font-style="normal" 
>
</g>

<g fill="none" stroke="#a0a0a4" stroke-opacity="1" stroke-dasharray="0.5,1" stroke-dashoffset="0" stroke-width="0.5" stroke-linecap="round" stroke-linejoin="round" transform="matrix(1.00313,0,0,1.00313,0,0)"
font-family="Sans Serif" font-size="9" font-weight="400" font-style="normal" 
>
<polyline fill="none" vector-effect="none" points="618.5,450.5 618.5,15.5 " />
</g>

<g fill="none" stroke="#000000" stroke-opacity="1" stroke-width="1" stroke-linecap="round" stroke-linejoin="round" transform="matrix(1.00313,0,0,1.00313,0,0)"
font-family="Sans Serif" font-size="9" font-weight="400" font-style="normal" 
>
<polyline fill="none" vector-effect="none" points="618.5,450.5 618.5,444.5 " />
<polyline fill="none" vector-effect="none" points="618.5,15.5 618.5,21.5 " />
</g>

<g fill="none" stroke="#000000" stroke-opacity="1" stroke-width="1" stroke-linecap="square" stroke-linejoin="bevel" transform="matrix(1.00313,0,0,1.00313,0,0)"
font-family="Sans Serif" font-size="9" font-weight="400" font-style="normal" 
>
</g>

<g fill="none" stroke="#000000" stroke-opacity="1" stroke-width="1" stroke-linecap="square" stroke-linejoin="bevel" transform="matrix(1.00313,0,0,1.00313,607.392,470.967)"
font-family="Sans Serif" font-size="9" font-weight="400" font-style="normal" 
>
</g>

<g fill="none" stroke="#000000" stroke-opacity="1" stroke-width="1" stroke-linecap="square" stroke-linejoin="bevel" transform="matrix(1.00313,0,0,1.00313,607.392,470.967)"
font-family="Sans Serif" font-size="9" font-weight="400" font-style="normal" 
>
</g>

<g fill="none" stroke="#000000" stroke-opacity="1" stroke-width="1" stroke-linecap="square" stroke-linejoin="bevel" transform="matrix(1.00313,0,0,1.00313,607.392,470.967)"
font-family="Sans Serif" font-size="9" font-weight="400" font-style="normal" 
>
</g>

<g fill="none" stroke="#000000" stroke-opacity="1" stroke-width="1" stroke-linecap="square" stroke-linejoin="bevel" transform="matrix(1.00313,0,0,1.00313,607.392,470.967)"
font-family="Sans Serif" font-size="9" font-weight="400" font-style="normal" 
>
</g>

<g fill="none" stroke="#000000" stroke-opacity="1" stroke-width="1" stroke-linecap="square" stroke-linejoin="bevel" transform="matrix(1.00313,0,0,1.00313,607.392,470.967)"
font-family="Sans Serif" font-size="9" font-weight="400" font-style="normal" 
>
</g>

<g fill="none" stroke="#000000" stroke-opacity="1" stroke-width="1" stroke-linecap="square" stroke-linejoin="bevel" transform="matrix(1.00313,0,0,1.00313,607.392,470.967)"
font-family="Sans" font-size="9" font-weight="400" font-style="normal" 
>
<text fill="#000000" fill-opacity="1" stroke="none" xml:space="preserve" x="0" y="0" font-family="Sans" font-size="9" font-weight="400" font-style="normal" 
 > 500</text>
</g>

<g fill="none" stroke="#000000" stroke-opacity="1" stroke-width="1" stroke-linecap="square" stroke-linejoin="bevel" transform="matrix(1.00313,0,0,1.00313,607.392,470.967)"
font-family="Sans Serif" font-size="9" font-weight="400" font-style="normal" 
>
</g>

<g fill="none" stroke="#000000" stroke-opacity="1" stroke-width="1" stroke-linecap="square" stroke-linejoin="bevel" transform="matrix(1.00313,0,0,1.00313,0,0)"
font-family="Sans Serif" font-size="9" font-weight="400" font-style="normal" 
>
</g>

<g fill="none" stroke="#000000" stroke-opacity="1" stroke-width="1" stroke-linecap="round" stroke-linejoin="round" transform="matrix(1.00313,0,0,1.00313,0,0)"
font-family="Sans Serif" font-size="9" font-weight="400" font-style="normal" 
>
<polyline fill="none" vector-effect="none" points="45.5,15.5 45.5,450.5 618.5,450.5 618.5,15.5 45.5,15.5 " />
</g>

<g fill="none" stroke="#000000" stroke-opacity="1" stroke-width="1" stroke-linecap="square" stroke-linejoin="bevel" transform="matrix(1.00313,0,0,1.00313,0,0)"
font-family="Sans Serif" font-size="9" font-weight="400" font-style="normal" 
>
</g>

<g fill="none" stroke="#000000" stroke-opacity="1" stroke-width="1" stroke-linecap="square" stroke-linejoin="bevel" transform="matrix(1.00313,0,0,1.00313,480.497,33.6047)"
font-family="Sans Serif" font-size="9" font-weight="400" font-style="normal" 
>
</g>

<g fill="none" stroke="#000000" stroke-opacity="1" stroke-width="1" stroke-linecap="square" stroke-linejoin="bevel" transform="matrix(1.00313,0,0,1.00313,480.497,33.6047)"
font-family="Sans Serif" font-size="9" font-weight="400" font-style="normal" 
>
</g>

<g fill="none" stroke="#000000" stroke-opacity="1" stroke-width="1" stroke-linecap="square" stroke-linejoin="bevel" transform="matrix(1.00313,0,0,1.00313,480.497,33.6047)"
font-family="Sans Serif" font-size="9" font-weight="400" font-style="normal" 
>
</g>

<g fill="none" stroke="#000000" stroke-opacity="1" stroke-width="1" stroke-linecap="square" stroke-linejoin="bevel" transform="matrix(1.00313,0,0,1.00313,480.497,33.6047)"
font-family="Sans Serif" font-size="9" font-weight="400" font-style="normal" 
>
</g>

<g fill="none" stroke="#000000" stroke-opacity="1" stroke-width="1" stroke-linecap="square" stroke-linejoin="bevel" transform="matrix(1.00313,0,0,1.00313,480.497,33.6047)"
font-family="Sans Serif" font-size="9" font-weight="400" font-style="normal" 
>
</g>

<g fill="none" stroke="#000000" stroke-opacity="1" stroke-width="1" stroke-linecap="square" stroke-linejoin="bevel" transform="matrix(1.00313,0,0,1.00313,480.497,33.6047)"
font-family="Sans" font-size="9" font-weight="400" font-style="normal" 
>
<text fill="#000000" fill-opacity="1" stroke="none" xml:space="preserve" x="0" y="0" font-family="Sans" font-size="9" font-weight="400" font-style="normal" 
 >Original signal</text>
</g>

<g fill="none" stroke="#000000" stroke-opacity="1" stroke-width="1" stroke-linecap="square" stroke-linejoin="bevel" transform="matrix(1.00313,0,0,1.00313,480.497,33.6047)"
font-family="Sans Serif" font-size="9" font-weight="400" font-style="normal" 
>
</g>

<g fill="none" stroke="#000000" stroke-opacity="1" stroke-width="1" stroke-linecap="square" stroke-linejoin="bevel" transform="matrix(1.00313,0,0,1.00313,0,0)"
font-family="Sans Serif" font-size="9" font-weight="400" font-style="normal" 
>
</g>

<g fill="none" stroke="#9400d3" stroke-opacity="1" stroke-width="1" stroke-linecap="round" stroke-linejoin="round" transform="matrix(1.00313,0,0,1.00313,0,0)"
font-family="Sans Serif" font-size="9" font-weight="400" font-style="normal" 
>
<path vector-effect="none" fill-rule="evenodd" d="M570.5,28.5 L604.5,28.5"/>
</g>

<g fill="none" stroke="#000000" stroke-opacity="1" stroke-width="1" stroke-linecap="square" stroke-linejoin="bevel" transform="matrix(1.00313,0,0,1.00313,0,0)"
font-family="Sans Serif" font-size="9" font-weight="400" font-style="normal" 
>
</g>

<g fill="none" stroke="#000000" stroke-opacity="1" stroke-width="1" stroke-linecap="square" stroke-linejoin="bevel" transform="matrix(1.00313,0,0,1.00313,0,0)"
font-family="Sans Serif" font-size="9" font-weight="400" font-style="normal" 
>
</g>

<g fill="none" stroke="#000000" stroke-opacity="1" stroke-width="1" stroke-linecap="square" stroke-linejoin="bevel" transform="matrix(1.00313,0,0,1.00313,0,0)"
font-family="Sans Serif" font-size="9" font-weight="400" font-style="normal" 
>
</g>

<g fill="none" stroke="#000000" stroke-opacity="1" stroke-width="1" stroke-linecap="square" stroke-linejoin="bevel" transform="matrix(1.00313,0,0,1.00313,0,0)"
font-family="Sans Serif" font-size="9" font-weight="400" font-style="normal" 
>
</g>

<g fill="none" stroke="#9400d3" stroke-opacity="1" stroke-width="1" stroke-linecap="round" stroke-linejoin="round" transform="matrix(1.00313,0,0,1.00313,0,0)"
font-family="Sans Serif" font-size="9" font-weight="400" font-style="normal" 
>
<polyline fill="none" vector-effect="none" points="45.5,226.7 45.5,226.7 46.6,236.4 47.8,159.8 48.9,200.7 50.1,189.4 51.2,287.7 52.4,335.6 53.5,261.6 54.7,234.2 55.8,194.7 57,233.3 58.1,286.8 59.3,260.3 60.4,225.1 61.6,198.6 62.7,254.7 63.8,258.1 65,232.3 66.1,258.8 67.3,264.5 68.4,209.2 69.6,246.4 70.7,243.3 71.9,265.9 73,253.5 74.2,230.3 75.3,230.9 76.5,258 77.6,237.3 78.8,184.7 79.9,239.1 81.1,240.6 82.2,236.7 83.3,307.3 84.5,216.1 85.6,233.6 86.8,238.6 87.9,214 89.1,192.9 90.2,242.1 91.4,205 92.5,192.4 93.7,248.2 94.8,245.4 96,192.2 97.1,249.3 98.3,202.1 99.4,209.7 100.5,238.4 101.7,237 102.8,215.7 104,235.9 105.1,233.1 106.3,224.3 107.4,227.6 108.6,231.9 109.7,223 110.9,232.5 112,228.9 113.2,238.6 114.3,233.2 115.5,232 116.6,232.6 117.7,232.3 118.9,230.3 120,237.2 121.2,234.1 122.3,240 123.5,236.7 124.6,228.4 125.8,243.3 126.9,224.9 128.1,240.5 129.2,223.4 130.4,231.5 131.5,252.7 132.7,238.3 133.8,284.3 135,262.3 136.1,263.3 137.2,244.9 138.4,212.1 139.5,239.3 140.7,242.3 141.8,180 143,218.2 144.1,180.2 145.3,207.4 146.4,220.5 147.6,210.6 148.7,237.7 149.9,221.3 151,183.5 152.2,204 153.3,232.7 154.4,269.2 155.6,293.5 156.7,236.3 157.9,238.7 159,276.7 160.2,252.6 161.3,215.7 162.5,249.4 163.6,307.2 164.8,313.3 165.9,218.4 167.1,203.8 168.2,182.5 169.4,177.6 170.5,217.2 171.6,292.4 172.8,178.2 173.9,189.4 175.1,226.6 176.2,240.1 177.4,330.9 178.5,247.5 179.7,248.4 180.8,201.7 182,306.8 183.1,216.9 184.3,314.9 185.4,250.2 186.6,189.1 187.7,245 188.9,217.9 190,272 191.1,289.7 192.3,267 193.4,215.4 194.6,257.3 195.7,205.3 196.9,209.6 198,265.1 199.2,240.7 200.3,213.4 201.5,253 202.6,213.1 203.8,234.2 204.9,253.2 206.1,346.8 207.2,206.1 208.3,207 209.5,301.6 210.6,291 211.8,245.6 212.9,229.6 214.1,226 215.2,144.6 216.4,198.1 217.5,231.9 218.7,231.1 219.8,228 221,236.4 222.1,255.1 223.3,211.2 224.4,230.8 225.5,227.8 226.7,232.9 227.8,271.5 229,194.8 230.1,258.6 231.3,204.9 232.4,247.9 233.6,240.3 234.7,239.2 235.9,248.5 237,227.7 238.2,236.4 239.3,251.9 240.5,224.4 241.6,220.4 242.7,210.7 243.9,247.2 245,227.6 246.2,219.7 247.3,248.2 248.5,213.6 249.6,244.5 250.8,233 251.9,235.8 253.1,248.3 254.2,241.1 255.4,231.5 256.5,230.6 257.7,228.7 258.8,231.3 260,232.5 261.1,233 262.2,230.5 263.4,233.1 264.5,234.5 265.7,236.4 266.8,229.4 268,218 269.1,225.4 270.3,235.5 271.4,229.1 272.6,234.7 273.7,237.1 274.9,231.7 276,224.6 277.2,231.4 278.3,234.8 279.4,240.5 280.6,259.8 281.7,219.8 282.9,218.5 284,268.8 285.2,248.3 286.3,249.7 287.5,214.3 288.6,199.9 289.8,212.5 290.9,204.7 292.1,250.9 293.2,214.1 294.4,207.9 295.5,209.2 296.6,241.6 297.8,223.1 298.9,200.3 300.1,282 301.2,176 302.4,283 303.5,276.9 304.7,240.3 305.8,302.2 307,237.1 308.1,326.7 309.3,220 310.4,241.5 311.6,219.8 312.7,236.8 313.9,226.6 315,258.7 316.1,237.9 317.3,207.6 318.4,226.7 319.6,213.4 320.7,260.5 321.9,233.3 323,180.6 324.2,347.6 325.3,285.7 326.5,303 327.6,186.3 328.8,259.5 329.9,248.1 331.1,261.3 332.2,116.1 333.3,316.5 334.5,215.7 335.6,250.4 336.8,190.6 337.9,159.4 339.1,285.7 340.2,269.3 341.4,182.9 342.5,238 343.7,283.2 344.8,186.4 346,248.6 347.1,248 348.3,245.4 349.4,241 350.5,219.6 351.7,225.7 352.8,253.9 354,254.1 355.1,179.9 356.3,275.3 357.4,217.7 358.6,233.4 359.7,189.1 360.9,241.7 362,236.6 363.2,260.2 364.3,213.8 365.5,254.1 366.6,215.5 367.8,215.5 368.9,260.4 370,175.3 371.2,223.2 372.3,203.4 373.5,217.6 374.6,230.6 375.8,203.3 376.9,192.7 378.1,223.7 379.2,235.3 380.4,230.4 381.5,244.9 382.7,216.6 383.8,241.1 385,217.6 386.1,243 387.2,248.4 388.4,246.1 389.5,231.9 390.7,222.2 391.8,234.1 393,248.1 394.1,226.3 395.3,232.6 396.4,230.8 397.6,225.7 398.7,225.7 399.9,234.7 401,236.4 402.2,233.5 403.3,232 404.4,232.6 405.6,232.9 406.7,230.3 407.9,237 409,246.5 410.2,233.6 411.3,237.4 412.5,230.1 413.6,208.1 414.8,242.9 415.9,222.3 417.1,220.1 418.2,214.9 419.4,240.4 420.5,218 421.7,241.8 422.8,233.3 423.9,205.6 425.1,220.4 426.2,227.4 427.4,240 428.5,241.2 429.7,212.9 430.8,243.5 432,229.6 433.1,235.4 434.3,235.9 435.4,273.2 436.6,188.2 437.7,233.5 438.9,230.9 440,162.6 441.1,200.6 442.3,239.4 443.4,197 444.6,235 445.7,239.1 446.9,212.1 448,314.5 449.2,257.2 450.3,202.1 451.5,190 452.6,184.5 453.8,273.4 454.9,320.5 456.1,227.5 457.2,276.1 458.3,255 459.5,288.7 460.6,290.5 461.8,222.9 462.9,261.1 464.1,233.4 465.2,220.9 466.4,289.5 467.5,232 468.7,245.7 469.8,207.8 471,287.1 472.1,226 473.3,243.1 474.4,260.5 475.6,169.3 476.7,279.4 477.8,199.2 479,229.2 480.1,270 481.3,196 482.4,214.3 483.6,194.1 484.7,235.6 485.9,243 487,241.6 488.2,301.3 489.3,243.6 490.5,231.9 491.6,262.8 492.8,255.7 493.9,302.6 495,142.3 496.2,277 497.3,221.8 498.5,316.8 499.6,212.9 500.8,263.1 501.9,153.1 503.1,148.7 504.2,244.4 505.4,203.3 506.5,259.5 507.7,238 508.8,231 510,179.7 511.1,179.2 512.2,226.6 513.4,224.9 514.5,243 515.7,236.3 516.8,223.8 518,235.8 519.1,261.2 520.3,253.1 521.4,265.9 522.6,216.6 523.7,265.3 524.9,230.6 526,230.7 527.2,214.2 528.3,231.6 529.4,246 530.6,229.9 531.7,228.2 532.9,237.7 534,226.7 535.2,237.3 536.3,232.4 537.5,238.8 538.6,236.9 539.8,240.2 540.9,235.3 542.1,233.3 543.2,232 544.4,235.7 545.5,233 546.7,232 547.8,232.6 548.9,233 550.1,234.2 551.2,236.1 552.4,233.8 553.5,232 554.7,226.8 555.8,224 557,249.4 558.1,238.1 559.3,238.8 560.4,229.5 561.6,220.7 562.7,242.6 563.9,203 565,212.8 566.1,202.2 567.3,249.9 568.4,225.2 569.6,235.4 570.7,251.5 571.9,197.5 573,251.5 574.2,172.4 575.3,262.6 576.5,214.3 577.6,259.5 578.8,283.4 579.9,253.2 581.1,248.6 582.2,267.9 583.3,157.2 584.5,257.6 585.6,198.3 586.8,220.7 587.9,193.9 589.1,207.3 590.2,251.9 591.4,291 592.5,270.2 593.7,203.6 594.8,277.9 596,208.9 597.1,243.8 598.3,228.3 599.4,194.7 600.6,234.4 601.7,255.5 602.8,251.8 604,225.5 605.1,252.3 606.3,265.1 607.4,264.2 608.6,274 609.7,182.8 610.9,281 612,208.4 613.2,218.5 614.3,177.1 615.5,227 616.6,192.2 617.8,216.2 " />
</g>

<g fill="none" stroke="#000000" stroke-opacity="1" stroke-width="1" stroke-linecap="square" stroke-linejoin="bevel" transform="matrix(1.00313,0,0,1.00313,0,0)"
font-family="Sans Serif" font-size="9" font-weight="400" font-style="normal" 
>
</g>

<g fill="none" stroke="#000000" stroke-opacity="1" stroke-width="1" stroke-linecap="square" stroke-linejoin="bevel" transform="matrix(1.00313,0,0,1.00313,485.513,48.6516)"
font-family="Sans Serif" font-size="9" font-weight="400" font-style="normal" 
>
</g>

<g fill="none" stroke="#000000" stroke-opacity="1" stroke-width="1" stroke-linecap="square" stroke-linejoin="bevel" transform="matrix(1.00313,0,0,1.00313,485.513,48.6516)"
font-family="Sans Serif" font-size="9" font-weight="400" font-style="normal" 
>
</g>

<g fill="none" stroke="#000000" stroke-opacity="1" stroke-width="1" stroke-linecap="square" stroke-linejoin="bevel" transform="matrix(1.00313,0,0,1.00313,485.513,48.6516)"
font-family="Sans Serif" font-size="9" font-weight="400" font-style="normal" 
>
</g>

<g fill="none" stroke="#000000" stroke-opacity="1" stroke-width="1" stroke-linecap="square" stroke-linejoin="bevel" transform="matrix(1.00313,0,0,1.00313,485.513,48.6516)"
font-family="Sans Serif" font-size="9" font-weight="400" font-style="normal" 
>
</g>

<g fill="none" stroke="#000000" stroke-opacity="1" stroke-width="1" stroke-linecap="square" stroke-linejoin="bevel" transform="matrix(1.00313,0,0,1.00313,485.513,48.6516)"
font-family="Sans Serif" font-size="9" font-weight="400" font-style="normal" 
>
</g>

<g fill="none" stroke="#000000" stroke-opacity="1" stroke-width="1" stroke-linecap="square" stroke-linejoin="bevel" transform="matrix(1.00313,0,0,1.00313,485.513,48.6516)"
font-family="Sans" font-size="9" font-weight="400" font-style="normal" 
>
<text fill="#000000" fill-opacity="1" stroke="none" xml:space="preserve" x="0" y="0" font-family="Sans" font-size="9" font-weight="400" font-style="normal" 
 >Moving mean</text>
</g>

<g fill="none" stroke="#000000" stroke-opacity="1" stroke-width="1" stroke-linecap="square" stroke-linejoin="bevel" transform="matrix(1.00313,0,0,1.00313,485.513,48.6516)"
font-family="Sans Serif" font-size="9" font-weight="400" font-style="normal" 
>
</g>

<g fill="none" stroke="#000000" stroke-opacity="1" stroke-width="1" stroke-linecap="square" stroke-linejoin="bevel" transform="matrix(1.00313,0,0,1.00313,0,0)"
font-family="Sans Serif" font-size="9" font-weight="400" font-style="normal" 
>
</g>

<g fill="none" stroke="#009e73" stroke-opacity="1" stroke-width="1" stroke-linecap="round" stroke-linejoin="round" transform="matrix(1.00313,0,0,1.00313,0,0)"
font-family="Sans Serif" font-size="9" font-weight="400" font-style="normal" 
>
<path vector-effect="none" fill-rule="evenodd" d="M570.5,43.5 L604.5,43.5"/>
</g>

<g fill="none" stroke="#000000" stroke-opacity="1" stroke-width="1" stroke-linecap="square" stroke-linejoin="bevel" transform="matrix(1.00313,0,0,1.00313,0,0)"
font-family="Sans Serif" font-size="9" font-weight="400" font-style="normal" 
>
</g>

<g fill="none" stroke="#000000" stroke-opacity="1" stroke-width="1" stroke-linecap="square" stroke-linejoin="bevel" transform="matrix(1.00313,0,0,1.00313,0,0)"
font-family="Sans Serif" font-size="9" font-weight="400" font-style="normal" 
>
</g>

<g fill="none" stroke="#000000" stroke-opacity="1" stroke-width="1" stroke-linecap="square" stroke-linejoin="bevel" transform="matrix(1.00313,0,0,1.00313,0,0)"
font-family="Sans Serif" font-size="9" font-weight="400" font-style="normal" 
>
</g>

<g fill="none" stroke="#000000" stroke-opacity="1" stroke-width="1" stroke-linecap="square" stroke-linejoin="bevel" transform="matrix(1.00313,0,0,1.00313,0,0)"
font-family="Sans Serif" font-size="9" font-weight="400" font-style="normal" 
>
</g>

<g fill="none" stroke="#009e73" stroke-opacity="1" stroke-width="1" stroke-linecap="round" stroke-linejoin="round" transform="matrix(1.00313,0,0,1.00313,0,0)"
font-family="Sans Serif" font-size="9" font-weight="400" font-style="normal" 
>
<polyline fill="none" vector-effect="none" points="45.5,221.3 45.5,221.3 46.6,231.2 47.8,234.4 48.9,235.1 50.1,232.1 51.2,232.7 52.4,238.2 53.5,240.4 54.7,246.3 55.8,246.1 57,252.1 58.1,249.4 59.3,240 60.4,239.7 61.6,242.5 62.7,243.8 63.8,245 65,241 66.1,241.5 67.3,244.1 68.4,247 69.6,244.8 70.7,244.8 71.9,245.3 73,238.5 74.2,236.2 75.3,239.1 76.5,238.2 77.6,244 78.8,239.5 79.9,237.7 81.1,238.4 82.2,236.9 83.3,231 84.5,231.4 85.6,233.3 86.8,229 87.9,229.7 89.1,230.5 90.2,220 91.4,223.1 92.5,220.2 93.7,217.6 94.8,219.8 96,223.8 97.1,221.4 98.3,224.2 99.4,227.9 100.5,225.7 101.7,224.1 102.8,227.7 104,225.3 105.1,228.1 106.3,229.8 107.4,229.8 108.6,229.5 109.7,231 110.9,230.7 112,230.6 113.2,231.1 114.3,232 115.5,232.2 116.6,233.8 117.7,234.2 118.9,234.1 120,234.6 121.2,233.8 122.3,234.6 123.5,233.7 124.6,233.7 125.8,235.7 126.9,235.8 128.1,240.4 129.2,242.4 130.4,244.8 131.5,246.3 132.7,243.5 133.8,244.8 135,244.9 136.1,241 137.2,239.8 138.4,233.2 139.5,230.4 140.7,224.6 141.8,219.9 143,217.6 144.1,215.4 145.3,212.8 146.4,209.6 147.6,208.7 148.7,216.8 149.9,223.7 151,228.8 152.2,231.6 153.3,236.7 154.4,240.6 155.6,238.6 156.7,241.1 157.9,252.4 159,262.3 160.2,261 161.3,255.1 162.5,245 163.6,239.6 164.8,237.7 165.9,239.1 167.1,232.3 168.2,230 169.4,227.9 170.5,221.8 171.6,223.4 172.8,226 173.9,230.1 175.1,231.8 176.2,243.6 177.4,243.5 178.5,245.6 179.7,252.1 180.8,252.1 182,253.8 183.1,251.7 184.3,246.4 185.4,250.2 186.6,251.9 187.7,253.2 188.9,248.7 190,247.6 191.1,238 192.3,239.4 193.4,244.1 194.6,241.2 195.7,244.4 196.9,239.1 198,234 199.2,232.8 200.3,244.7 201.5,240.1 202.6,240.2 203.8,248.6 204.9,250.9 206.1,251.4 207.2,252.8 208.3,250.4 209.5,244.2 210.6,240.9 211.8,238.9 212.9,228.4 214.1,230.4 215.2,233.1 216.4,228.9 217.5,221.6 218.7,220.3 219.8,220.1 221,220.7 222.1,232.3 223.3,232 224.4,234.4 225.5,232 226.7,233.8 227.8,234.2 229,232.7 230.1,236.1 231.3,235.8 232.4,236.6 233.6,238.3 234.7,234 235.9,236.4 237,232 238.2,235.9 239.3,234 240.5,232.2 241.6,233 242.7,229.8 243.9,231.3 245,231 246.2,229.6 247.3,231.7 248.5,233.6 249.6,235.5 250.8,234 251.9,234.1 253.1,235.1 254.2,233.7 255.4,235.5 256.5,234.2 257.7,234.2 258.8,234.1 260,233 261.1,231.9 262.2,230.7 263.4,230.3 264.5,230.9 265.7,230.7 266.8,230.9 268,231.2 269.1,231.4 270.3,230.6 271.4,230.3 272.6,230.2 273.7,231.2 274.9,235 276,234.4 277.2,232.9 278.3,236.5 279.4,237.8 280.6,238.9 281.7,237.3 282.9,235.1 284,233.4 285.2,230.6 286.3,231.6 287.5,227.4 288.6,226.3 289.8,225.5 290.9,223 292.1,220.7 293.2,216.2 294.4,222.4 295.5,220.2 296.6,226.6 297.8,233.2 298.9,232.2 300.1,240.2 301.2,242.9 302.4,253.6 303.5,251.6 304.7,253.3 305.8,255 307,250.9 308.1,255.5 309.3,253.3 310.4,249.8 311.6,246.8 312.7,240 313.9,237.8 315,231.8 316.1,233 317.3,227.5 318.4,239.1 319.6,243.5 320.7,250.5 321.9,243.9 323,245.8 324.2,249.5 325.3,252.7 326.5,243.8 327.6,248.9 328.8,247.3 329.9,253.6 331.1,239.4 332.2,227.9 333.3,226.3 334.5,233.9 335.6,226.9 336.8,226 337.9,228 339.1,234.4 340.2,228.2 341.4,231.1 342.5,230.7 343.7,235.3 344.8,240.7 346,235.3 347.1,233.9 348.3,240.4 349.4,235.1 350.5,234.4 351.7,237.2 352.8,235.8 354,230.5 355.1,230.1 356.3,229.7 357.4,233.4 358.6,232.3 359.7,232.3 360.9,228.8 362,232.1 363.2,230.7 364.3,226.9 365.5,225.9 366.6,227.2 367.8,225.1 368.9,224.5 370,219.3 371.2,217.4 372.3,214.7 373.5,216.5 374.6,217.8 375.8,216.4 376.9,220.2 378.1,221.8 379.2,223.1 380.4,225.4 381.5,227 382.7,230.9 383.8,234.5 385,234.3 386.1,234.2 387.2,235.8 388.4,234.1 389.5,235.6 390.7,234.6 391.8,235.4 393,233.8 394.1,232.6 395.3,231.7 396.4,231.8 397.6,232.7 398.7,232.6 399.9,231.2 401,231.6 402.2,232 403.3,233.4 404.4,234.1 405.6,235.2 406.7,234.8 407.9,232.2 409,233 410.2,232.2 411.3,231 412.5,229.4 413.6,230.3 414.8,228.6 415.9,228.1 417.1,228.1 418.2,225.2 419.4,224.3 420.5,226.1 421.7,225.8 422.8,227.6 423.9,226.9 425.1,229.5 426.2,228.5 427.4,230.1 428.5,229.6 429.7,233.2 430.8,231.6 432,232.8 433.1,233.1 434.3,226.1 435.4,222.4 436.6,224.8 437.7,220.6 438.9,221.1 440,221.4 441.1,219.2 442.3,223 443.4,229.3 444.6,226.4 445.7,222.7 446.9,224.7 448,231.3 449.2,238.7 450.3,241.5 451.5,245.2 452.6,246.6 453.8,253.6 454.9,251.4 456.1,248.3 457.2,253.7 458.3,257.6 459.5,260.9 460.6,262.4 461.8,254.3 462.9,256 464.1,249.8 465.2,252.7 466.4,247 467.5,242.7 468.7,246.1 469.8,237.7 471,241.9 472.1,240 473.3,234.5 474.4,237.9 475.6,233.4 476.7,234 477.8,225.6 479,226.4 480.1,226.4 481.3,224.7 482.4,236.7 483.6,233.5 484.7,236.4 485.9,239.5 487,238.2 488.2,247.9 489.3,241.3 490.5,248.8 491.6,247.6 492.8,254.3 493.9,251.7 495,248.2 496.2,240 497.3,232.4 498.5,230.8 499.6,226 500.8,222.1 501.9,230.8 503.1,226.6 504.2,222.8 505.4,210.3 506.5,211.5 507.7,208 508.8,216.2 510,224.2 511.1,222.3 512.2,225.3 513.4,225.4 514.5,226.8 515.7,230 516.8,233.3 518,241.1 519.1,241.5 520.3,242 521.4,239.4 522.6,239 523.7,241 524.9,240.5 526,237.5 527.2,236.1 528.3,232.5 529.4,234.4 530.6,231.4 531.7,232.1 532.9,232.7 534,235.1 535.2,235.4 536.3,234.2 537.5,234.4 538.6,235.1 539.8,234.7 540.9,235.2 542.1,234.7 543.2,234.8 544.4,234.4 545.5,234.3 546.7,233.7 547.8,233.4 548.9,232.8 550.1,232.1 551.2,233.4 552.4,233.8 553.5,234.5 554.7,234.2 555.8,233 557,233.8 558.1,230.8 559.3,228.9 560.4,226.2 561.6,228.3 562.7,228.4 563.9,227.1 565,228.3 566.1,224.6 567.3,226.6 568.4,222.2 569.6,224 570.7,225 571.9,229.3 573,236.6 574.2,236.9 575.3,239.1 576.5,242 577.6,233.5 578.8,238.9 579.9,234.1 581.1,238.5 582.2,232.2 583.3,231.6 584.5,230.9 585.6,231.6 586.8,233.1 587.9,229.1 589.1,230 590.2,234.7 591.4,233.4 592.5,236.1 593.7,233.8 594.8,237.5 596,241.9 597.1,241.8 598.3,235.9 599.4,234.3 600.6,239.8 601.7,238.6 602.8,244.5 604,239 605.1,243.8 606.3,245 607.4,243.6 608.6,236.4 609.7,234.2 610.9,231.2 612,227.9 613.2,223.4 614.3,219.1 615.5,213.8 616.6,216.9 617.8,211 " />
</g>

<g fill="none" stroke="#000000" stroke-opacity="1" stroke-width="1" stroke-linecap="square" stroke-linejoin="bevel" transform="matrix(1.00313,0,0,1.00313,0,0)"
font-family="Sans Serif" font-size="9" font-weight="400" font-style="normal" 
>
</g>

<g fill="none" stroke="#000000" stroke-opacity="1" stroke-width="1" stroke-linecap="square" stroke-linejoin="bevel" transform="matrix(1.00313,0,0,1.00313,461.438,63.6984)"
font-family="Sans Serif" font-size="9" font-weight="400" font-style="normal" 
>
</g>

<g fill="none" stroke="#000000" stroke-opacity="1" stroke-width="1" stroke-linecap="square" stroke-linejoin="bevel" transform="matrix(1.00313,0,0,1.00313,461.438,63.6984)"
font-family="Sans Serif" font-size="9" font-weight="400" font-style="normal" 
>
</g>

<g fill="none" stroke="#000000" stroke-opacity="1" stroke-width="1" stroke-linecap="square" stroke-linejoin="bevel" transform="matrix(1.00313,0,0,1.00313,461.438,63.6984)"
font-family="Sans Serif" font-size="9" font-weight="400" font-style="normal" 
>
</g>

<g fill="none" stroke="#000000" stroke-opacity="1" stroke-width="1" stroke-linecap="square" stroke-linejoin="bevel" transform="matrix(1.00313,0,0,1.00313,461.438,63.6984)"
font-family="Sans Serif" font-size="9" font-weight="400" font-style="normal" 
>
</g>

<g fill="none" stroke="#000000" stroke-opacity="1" stroke-width="1" stroke-linecap="square" stroke-linejoin="bevel" transform="matrix(1.00313,0,0,1.00313,461.438,63.6984)"
font-family="Sans Serif" font-size="9" font-weight="400" font-style="normal" 
>
</g>

<g fill="none" stroke="#000000" stroke-opacity="1" stroke-width="1" stroke-linecap="square" stroke-linejoin="bevel" transform="matrix(1.00313,0,0,1.00313,461.438,63.6984)"
font-family="Sans" font-size="9" font-weight="400" font-style="normal" 
>
<text fill="#000000" fill-opacity="1" stroke="none" xml:space="preserve" x="0" y="0" font-family="Sans" font-size="9" font-weight="400" font-style="normal" 
 >Moving minimum</text>
</g>

<g fill="none" stroke="#000000" stroke-opacity="1" stroke-width="1" stroke-linecap="square" stroke-linejoin="bevel" transform="matrix(1.00313,0,0,1.00313,461.438,63.6984)"
font-family="Sans Serif" font-size="9" font-weight="400" font-style="normal" 
>
</g>

<g fill="none" stroke="#000000" stroke-opacity="1" stroke-width="1" stroke-linecap="square" stroke-linejoin="bevel" transform="matrix(1.00313,0,0,1.00313,0,0)"
font-family="Sans Serif" font-size="9" font-weight="400" font-style="normal" 
>
</g>

<g fill="none" stroke="#56b4e9" stroke-opacity="1" stroke-width="1" stroke-linecap="round" stroke-linejoin="round" transform="matrix(1.00313,0,0,1.00313,0,0)"
font-family="Sans Serif" font-size="9" font-weight="400" font-style="normal" 
>
<path vector-effect="none" fill-rule="evenodd" d="M570.5,58.5 L604.5,58.5"/>
</g>

<g fill="none" stroke="#000000" stroke-opacity="1" stroke-width="1" stroke-linecap="square" stroke-linejoin="bevel" transform="matrix(1.00313,0,0,1.00313,0,0)"
font-family="Sans Serif" font-size="9" font-weight="400" font-style="normal" 
>
</g>

<g fill="none" stroke="#000000" stroke-opacity="1" stroke-width="1" stroke-linecap="square" stroke-linejoin="bevel" transform="matrix(1.00313,0,0,1.00313,0,0)"
font-family="Sans Serif" font-size="9" font-weight="400" font-style="normal" 
>
</g>

<g fill="none" stroke="#000000" stroke-opacity="1" stroke-width="1" stroke-linecap="square" stroke-linejoin="bevel" transform="matrix(1.00313,0,0,1.00313,0,0)"
font-family="Sans Serif" font-size="9" font-weight="400" font-style="normal" 
>
</g>

<g fill="none" stroke="#000000" stroke-opacity="1" stroke-width="1" stroke-linecap="square" stroke-linejoin="bevel" transform="matrix(1.00313,0,0,1.00313,0,0)"
font-family="Sans Serif" font-size="9" font-weight="400" font-style="normal" 
>
</g>

<g fill="none" stroke="#56b4e9" stroke-opacity="1" stroke-width="1" stroke-linecap="round" stroke-linejoin="round" transform="matrix(1.00313,0,0,1.00313,0,0)"
font-family="Sans Serif" font-size="9" font-weight="400" font-style="normal" 
>
<polyline fill="none" vector-effect="none" points="45.5,287.7 45.5,287.7 46.6,335.6 47.8,335.6 48.9,335.6 50.1,335.6 51.2,335.6 52.4,335.6 53.5,335.6 54.7,335.6 55.8,335.6 57,335.6 58.1,335.6 59.3,286.8 60.4,286.8 61.6,286.8 62.7,286.8 63.8,286.8 65,264.5 66.1,265.9 67.3,265.9 68.4,265.9 69.6,265.9 70.7,265.9 71.9,265.9 73,265.9 74.2,265.9 75.3,265.9 76.5,265.9 77.6,307.3 78.8,307.3 79.9,307.3 81.1,307.3 82.2,307.3 83.3,307.3 84.5,307.3 85.6,307.3 86.8,307.3 87.9,307.3 89.1,307.3 90.2,248.2 91.4,249.3 92.5,249.3 93.7,249.3 94.8,249.3 96,249.3 97.1,249.3 98.3,249.3 99.4,249.3 100.5,249.3 101.7,249.3 102.8,249.3 104,238.4 105.1,238.4 106.3,238.4 107.4,238.6 108.6,238.6 109.7,238.6 110.9,238.6 112,238.6 113.2,238.6 114.3,238.6 115.5,238.6 116.6,240 117.7,240 118.9,240 120,243.3 121.2,243.3 122.3,243.3 123.5,243.3 124.6,243.3 125.8,252.7 126.9,252.7 128.1,284.3 129.2,284.3 130.4,284.3 131.5,284.3 132.7,284.3 133.8,284.3 135,284.3 136.1,284.3 137.2,284.3 138.4,284.3 139.5,284.3 140.7,263.3 141.8,263.3 143,244.9 144.1,242.3 145.3,242.3 146.4,242.3 147.6,237.7 148.7,269.2 149.9,293.5 151,293.5 152.2,293.5 153.3,293.5 154.4,293.5 155.6,293.5 156.7,293.5 157.9,307.2 159,313.3 160.2,313.3 161.3,313.3 162.5,313.3 163.6,313.3 164.8,313.3 165.9,313.3 167.1,313.3 168.2,313.3 169.4,313.3 170.5,313.3 171.6,330.9 172.8,330.9 173.9,330.9 175.1,330.9 176.2,330.9 177.4,330.9 178.5,330.9 179.7,330.9 180.8,330.9 182,330.9 183.1,330.9 184.3,314.9 185.4,314.9 186.6,314.9 187.7,314.9 188.9,314.9 190,314.9 191.1,289.7 192.3,289.7 193.4,289.7 194.6,289.7 195.7,289.7 196.9,289.7 198,267 199.2,265.1 200.3,346.8 201.5,346.8 202.6,346.8 203.8,346.8 204.9,346.8 206.1,346.8 207.2,346.8 208.3,346.8 209.5,346.8 210.6,346.8 211.8,346.8 212.9,301.6 214.1,301.6 215.2,301.6 216.4,291 217.5,255.1 218.7,255.1 219.8,255.1 221,255.1 222.1,271.5 223.3,271.5 224.4,271.5 225.5,271.5 226.7,271.5 227.8,271.5 229,271.5 230.1,271.5 231.3,271.5 232.4,271.5 233.6,271.5 234.7,258.6 235.9,258.6 237,251.9 238.2,251.9 239.3,251.9 240.5,251.9 241.6,251.9 242.7,251.9 243.9,251.9 245,251.9 246.2,248.2 247.3,248.3 248.5,248.3 249.6,248.3 250.8,248.3 251.9,248.3 253.1,248.3 254.2,248.3 255.4,248.3 256.5,248.3 257.7,248.3 258.8,248.3 260,241.1 261.1,236.4 262.2,236.4 263.4,236.4 264.5,236.4 265.7,236.4 266.8,236.4 268,237.1 269.1,237.1 270.3,237.1 271.4,237.1 272.6,237.1 273.7,240.5 274.9,259.8 276,259.8 277.2,259.8 278.3,268.8 279.4,268.8 280.6,268.8 281.7,268.8 282.9,268.8 284,268.8 285.2,268.8 286.3,268.8 287.5,268.8 288.6,268.8 289.8,268.8 290.9,250.9 292.1,250.9 293.2,250.9 294.4,282 295.5,282 296.6,283 297.8,283 298.9,283 300.1,302.2 301.2,302.2 302.4,326.7 303.5,326.7 304.7,326.7 305.8,326.7 307,326.7 308.1,326.7 309.3,326.7 310.4,326.7 311.6,326.7 312.7,326.7 313.9,326.7 315,260.5 316.1,260.5 317.3,260.5 318.4,347.6 319.6,347.6 320.7,347.6 321.9,347.6 323,347.6 324.2,347.6 325.3,347.6 326.5,347.6 327.6,347.6 328.8,347.6 329.9,347.6 331.1,316.5 332.2,316.5 333.3,316.5 334.5,316.5 335.6,316.5 336.8,316.5 337.9,316.5 339.1,316.5 340.2,285.7 341.4,285.7 342.5,285.7 343.7,285.7 344.8,285.7 346,283.2 347.1,283.2 348.3,283.2 349.4,283.2 350.5,275.3 351.7,275.3 352.8,275.3 354,275.3 355.1,275.3 356.3,275.3 357.4,275.3 358.6,275.3 359.7,275.3 360.9,275.3 362,275.3 363.2,260.4 364.3,260.4 365.5,260.4 366.6,260.4 367.8,260.4 368.9,260.4 370,260.4 371.2,260.4 372.3,260.4 373.5,260.4 374.6,260.4 375.8,244.9 376.9,244.9 378.1,244.9 379.2,244.9 380.4,244.9 381.5,248.4 382.7,248.4 383.8,248.4 385,248.4 386.1,248.4 387.2,248.4 388.4,248.4 389.5,248.4 390.7,248.4 391.8,248.4 393,248.4 394.1,248.1 395.3,248.1 396.4,248.1 397.6,248.1 398.7,248.1 399.9,236.4 401,236.4 402.2,237 403.3,246.5 404.4,246.5 405.6,246.5 406.7,246.5 407.9,246.5 409,246.5 410.2,246.5 411.3,246.5 412.5,246.5 413.6,246.5 414.8,246.5 415.9,242.9 417.1,242.9 418.2,242.9 419.4,242.9 420.5,242.9 421.7,241.8 422.8,241.8 423.9,241.8 425.1,243.5 426.2,243.5 427.4,243.5 428.5,243.5 429.7,273.2 430.8,273.2 432,273.2 433.1,273.2 434.3,273.2 435.4,273.2 436.6,273.2 437.7,273.2 438.9,273.2 440,273.2 441.1,273.2 442.3,314.5 443.4,314.5 444.6,314.5 445.7,314.5 446.9,314.5 448,314.5 449.2,320.5 450.3,320.5 451.5,320.5 452.6,320.5 453.8,320.5 454.9,320.5 456.1,320.5 457.2,320.5 458.3,320.5 459.5,320.5 460.6,320.5 461.8,290.5 462.9,290.5 464.1,290.5 465.2,290.5 466.4,290.5 467.5,289.5 468.7,289.5 469.8,289.5 471,289.5 472.1,289.5 473.3,287.1 474.4,287.1 475.6,287.1 476.7,287.1 477.8,279.4 479,279.4 480.1,279.4 481.3,279.4 482.4,301.3 483.6,301.3 484.7,301.3 485.9,301.3 487,301.3 488.2,302.6 489.3,302.6 490.5,302.6 491.6,302.6 492.8,316.8 493.9,316.8 495,316.8 496.2,316.8 497.3,316.8 498.5,316.8 499.6,316.8 500.8,316.8 501.9,316.8 503.1,316.8 504.2,316.8 505.4,263.1 506.5,263.1 507.7,259.5 508.8,259.5 510,259.5 511.1,259.5 512.2,259.5 513.4,261.2 514.5,261.2 515.7,265.9 516.8,265.9 518,265.9 519.1,265.9 520.3,265.9 521.4,265.9 522.6,265.9 523.7,265.9 524.9,265.9 526,265.9 527.2,265.9 528.3,265.3 529.4,265.3 530.6,246 531.7,246 532.9,246 534,246 535.2,246 536.3,240.2 537.5,240.2 538.6,240.2 539.8,240.2 540.9,240.2 542.1,240.2 543.2,240.2 544.4,240.2 545.5,240.2 546.7,236.1 547.8,236.1 548.9,236.1 550.1,236.1 551.2,249.4 552.4,249.4 553.5,249.4 554.7,249.4 555.8,249.4 557,249.4 558.1,249.4 559.3,249.4 560.4,249.4 561.6,249.9 562.7,249.9 563.9,249.9 565,251.5 566.1,251.5 567.3,251.5 568.4,251.5 569.6,262.6 570.7,262.6 571.9,262.6 573,283.4 574.2,283.4 575.3,283.4 576.5,283.4 577.6,283.4 578.8,283.4 579.9,283.4 581.1,283.4 582.2,283.4 583.3,283.4 584.5,283.4 585.6,291 586.8,291 587.9,291 589.1,291 590.2,291 591.4,291 592.5,291 593.7,291 594.8,291 596,291 597.1,291 598.3,277.9 599.4,277.9 600.6,277.9 601.7,265.1 602.8,274 604,274 605.1,281 606.3,281 607.4,281 608.6,281 609.7,281 610.9,281 612,281 613.2,281 614.3,281 615.5,281 616.6,281 617.8,227 " />
</g>

<g fill="none" stroke="#000000" stroke-opacity="1" stroke-width="1" stroke-linecap="square" stroke-linejoin="bevel" transform="matrix(1.00313,0,0,1.00313,0,0)"
font-family="Sans Serif" font-size="9" font-weight="400" font-style="normal" 
>
</g>

<g fill="none" stroke="#000000" stroke-opacity="1" stroke-width="1" stroke-linecap="square" stroke-linejoin="bevel" transform="matrix(1.00313,0,0,1.00313,458.428,78.7453)"
font-family="Sans Serif" font-size="9" font-weight="400" font-style="normal" 
>
</g>

<g fill="none" stroke="#000000" stroke-opacity="1" stroke-width="1" stroke-linecap="square" stroke-linejoin="bevel" transform="matrix(1.00313,0,0,1.00313,458.428,78.7453)"
font-family="Sans Serif" font-size="9" font-weight="400" font-style="normal" 
>
</g>

<g fill="none" stroke="#000000" stroke-opacity="1" stroke-width="1" stroke-linecap="square" stroke-linejoin="bevel" transform="matrix(1.00313,0,0,1.00313,458.428,78.7453)"
font-family="Sans Serif" font-size="9" font-weight="400" font-style="normal" 
>
</g>

<g fill="none" stroke="#000000" stroke-opacity="1" stroke-width="1" stroke-linecap="square" stroke-linejoin="bevel" transform="matrix(1.00313,0,0,1.00313,458.428,78.7453)"
font-family="Sans Serif" font-size="9" font-weight="400" font-style="normal" 
>
</g>

<g fill="none" stroke="#000000" stroke-opacity="1" stroke-width="1" stroke-linecap="square" stroke-linejoin="bevel" transform="matrix(1.00313,0,0,1.00313,458.428,78.7453)"
font-family="Sans Serif" font-size="9" font-weight="400" font-style="normal" 
>
</g>

<g fill="none" stroke="#000000" stroke-opacity="1" stroke-width="1" stroke-linecap="square" stroke-linejoin="bevel" transform="matrix(1.00313,0,0,1.00313,458.428,78.7453)"
font-family="Sans" font-size="9" font-weight="400" font-style="normal" 
>
<text fill="#000000" fill-opacity="1" stroke="none" xml:space="preserve" x="0" y="0" font-family="Sans" font-size="9" font-weight="400" font-style="normal" 
 >Moving maximum</text>
</g>

<g fill="none" stroke="#000000" stroke-opacity="1" stroke-width="1" stroke-linecap="square" stroke-linejoin="bevel" transform="matrix(1.00313,0,0,1.00313,458.428,78.7453)"
font-family="Sans Serif" font-size="9" font-weight="400" font-style="normal" 
>
</g>

<g fill="none" stroke="#000000" stroke-opacity="1" stroke-width="1" stroke-linecap="square" stroke-linejoin="bevel" transform="matrix(1.00313,0,0,1.00313,0,0)"
font-family="Sans Serif" font-size="9" font-weight="400" font-style="normal" 
>
</g>

<g fill="none" stroke="#e69f00" stroke-opacity="1" stroke-width="1" stroke-linecap="round" stroke-linejoin="round" transform="matrix(1.00313,0,0,1.00313,0,0)"
font-family="Sans Serif" font-size="9" font-weight="400" font-style="normal" 
>
<path vector-effect="none" fill-rule="evenodd" d="M570.5,73.5 L604.5,73.5"/>
</g>

<g fill="none" stroke="#000000" stroke-opacity="1" stroke-width="1" stroke-linecap="square" stroke-linejoin="bevel" transform="matrix(1.00313,0,0,1.00313,0,0)"
font-family="Sans Serif" font-size="9" font-weight="400" font-style="normal" 
>
</g>

<g fill="none" stroke="#000000" stroke-opacity="1" stroke-width="1" stroke-linecap="square" stroke-linejoin="bevel" transform="matrix(1.00313,0,0,1.00313,0,0)"
font-family="Sans Serif" font-size="9" font-weight="400" font-style="normal" 
>
</g>

<g fill="none" stroke="#000000" stroke-opacity="1" stroke-width="1" stroke-linecap="square" stroke-linejoin="bevel" transform="matrix(1.00313,0,0,1.00313,0,0)"
font-family="Sans Serif" font-size="9" font-weight="400" font-style="normal" 
>
</g>

<g fill="none" stroke="#000000" stroke-opacity="1" stroke-width="1" stroke-linecap="square" stroke-linejoin="bevel" transform="matrix(1.00313,0,0,1.00313,0,0)"
font-family="Sans Serif" font-size="9" font-weight="400" font-style="normal" 
>
</g>

<g fill="none" stroke="#e69f00" stroke-opacity="1" stroke-width="1" stroke-linecap="round" stroke-linejoin="round" transform="matrix(1.00313,0,0,1.00313,0,0)"
font-family="Sans Serif" font-size="9" font-weight="400" font-style="normal" 
>
<polyline fill="none" vector-effect="none" points="45.5,159.8 45.5,159.8 46.6,159.8 47.8,159.8 48.9,159.8 50.1,159.8 51.2,159.8 52.4,159.8 53.5,159.8 54.7,189.4 55.8,189.4 57,194.7 58.1,194.7 59.3,194.7 60.4,194.7 61.6,194.7 62.7,198.6 63.8,198.6 65,198.6 66.1,198.6 67.3,198.6 68.4,209.2 69.6,209.2 70.7,209.2 71.9,209.2 73,184.7 74.2,184.7 75.3,184.7 76.5,184.7 77.6,184.7 78.8,184.7 79.9,184.7 81.1,184.7 82.2,184.7 83.3,184.7 84.5,184.7 85.6,192.9 86.8,192.4 87.9,192.4 89.1,192.4 90.2,192.2 91.4,192.2 92.5,192.2 93.7,192.2 94.8,192.2 96,192.2 97.1,192.2 98.3,192.2 99.4,192.2 100.5,192.2 101.7,192.2 102.8,202.1 104,202.1 105.1,209.7 106.3,215.7 107.4,215.7 108.6,215.7 109.7,223 110.9,223 112,223 113.2,223 114.3,223 115.5,223 116.6,228.9 117.7,228.9 118.9,228.4 120,228.4 121.2,224.9 122.3,224.9 123.5,223.4 124.6,223.4 125.8,223.4 126.9,223.4 128.1,223.4 129.2,223.4 130.4,223.4 131.5,223.4 132.7,212.1 133.8,212.1 135,212.1 136.1,180 137.2,180 138.4,180 139.5,180 140.7,180 141.8,180 143,180 144.1,180 145.3,180 146.4,180 147.6,180 148.7,180.2 149.9,180.2 151,183.5 152.2,183.5 153.3,183.5 154.4,183.5 155.6,183.5 156.7,183.5 157.9,204 159,215.7 160.2,215.7 161.3,203.8 162.5,182.5 163.6,177.6 164.8,177.6 165.9,177.6 167.1,177.6 168.2,177.6 169.4,177.6 170.5,177.6 171.6,177.6 172.8,177.6 173.9,177.6 175.1,177.6 176.2,178.2 177.4,178.2 178.5,178.2 179.7,189.4 180.8,189.1 182,189.1 183.1,189.1 184.3,189.1 185.4,189.1 186.6,189.1 187.7,189.1 188.9,189.1 190,189.1 191.1,189.1 192.3,189.1 193.4,205.3 194.6,205.3 195.7,205.3 196.9,205.3 198,205.3 199.2,205.3 200.3,205.3 201.5,205.3 202.6,206.1 203.8,206.1 204.9,206.1 206.1,206.1 207.2,206.1 208.3,206.1 209.5,144.6 210.6,144.6 211.8,144.6 212.9,144.6 214.1,144.6 215.2,144.6 216.4,144.6 217.5,144.6 218.7,144.6 219.8,144.6 221,144.6 222.1,198.1 223.3,194.8 224.4,194.8 225.5,194.8 226.7,194.8 227.8,194.8 229,194.8 230.1,194.8 231.3,194.8 232.4,194.8 233.6,194.8 234.7,194.8 235.9,204.9 237,204.9 238.2,210.7 239.3,210.7 240.5,210.7 241.6,210.7 242.7,210.7 243.9,210.7 245,210.7 246.2,210.7 247.3,210.7 248.5,210.7 249.6,213.6 250.8,213.6 251.9,213.6 253.1,213.6 254.2,213.6 255.4,228.7 256.5,228.7 257.7,228.7 258.8,228.7 260,228.7 261.1,228.7 262.2,218 263.4,218 264.5,218 265.7,218 266.8,218 268,218 269.1,218 270.3,218 271.4,218 272.6,218 273.7,218 274.9,224.6 276,219.8 277.2,218.5 278.3,218.5 279.4,218.5 280.6,218.5 281.7,214.3 282.9,199.9 284,199.9 285.2,199.9 286.3,199.9 287.5,199.9 288.6,199.9 289.8,199.9 290.9,199.9 292.1,199.9 293.2,199.9 294.4,199.9 295.5,176 296.6,176 297.8,176 298.9,176 300.1,176 301.2,176 302.4,176 303.5,176 304.7,176 305.8,176 307,176 308.1,219.8 309.3,219.8 310.4,219.8 311.6,207.6 312.7,207.6 313.9,207.6 315,207.6 316.1,207.6 317.3,180.6 318.4,180.6 319.6,180.6 320.7,180.6 321.9,180.6 323,180.6 324.2,180.6 325.3,180.6 326.5,116.1 327.6,116.1 328.8,116.1 329.9,116.1 331.1,116.1 332.2,116.1 333.3,116.1 334.5,116.1 335.6,116.1 336.8,116.1 337.9,116.1 339.1,159.4 340.2,159.4 341.4,159.4 342.5,159.4 343.7,159.4 344.8,182.9 346,182.9 347.1,182.9 348.3,186.4 349.4,179.9 350.5,179.9 351.7,179.9 352.8,179.9 354,179.9 355.1,179.9 356.3,179.9 357.4,179.9 358.6,179.9 359.7,179.9 360.9,179.9 362,189.1 363.2,189.1 364.3,175.3 365.5,175.3 366.6,175.3 367.8,175.3 368.9,175.3 370,175.3 371.2,175.3 372.3,175.3 373.5,175.3 374.6,175.3 375.8,175.3 376.9,192.7 378.1,192.7 379.2,192.7 380.4,192.7 381.5,192.7 382.7,192.7 383.8,216.6 385,216.6 386.1,216.6 387.2,216.6 388.4,216.6 389.5,217.6 390.7,217.6 391.8,222.2 393,222.2 394.1,222.2 395.3,222.2 396.4,222.2 397.6,225.7 398.7,225.7 399.9,225.7 401,225.7 402.2,225.7 403.3,225.7 404.4,225.7 405.6,230.3 406.7,230.1 407.9,208.1 409,208.1 410.2,208.1 411.3,208.1 412.5,208.1 413.6,208.1 414.8,208.1 415.9,208.1 417.1,208.1 418.2,205.6 419.4,205.6 420.5,205.6 421.7,205.6 422.8,205.6 423.9,205.6 425.1,205.6 426.2,205.6 427.4,205.6 428.5,205.6 429.7,205.6 430.8,188.2 432,188.2 433.1,188.2 434.3,162.6 435.4,162.6 436.6,162.6 437.7,162.6 438.9,162.6 440,162.6 441.1,162.6 442.3,162.6 443.4,162.6 444.6,162.6 445.7,162.6 446.9,184.5 448,184.5 449.2,184.5 450.3,184.5 451.5,184.5 452.6,184.5 453.8,184.5 454.9,184.5 456.1,184.5 457.2,184.5 458.3,184.5 459.5,220.9 460.6,220.9 461.8,220.9 462.9,220.9 464.1,207.8 465.2,207.8 466.4,207.8 467.5,207.8 468.7,207.8 469.8,169.3 471,169.3 472.1,169.3 473.3,169.3 474.4,169.3 475.6,169.3 476.7,169.3 477.8,169.3 479,169.3 480.1,169.3 481.3,169.3 482.4,194.1 483.6,194.1 484.7,194.1 485.9,194.1 487,194.1 488.2,194.1 489.3,142.3 490.5,142.3 491.6,142.3 492.8,142.3 493.9,142.3 495,142.3 496.2,142.3 497.3,142.3 498.5,142.3 499.6,142.3 500.8,142.3 501.9,148.7 503.1,148.7 504.2,148.7 505.4,148.7 506.5,148.7 507.7,148.7 508.8,148.7 510,179.2 511.1,179.2 512.2,179.2 513.4,179.2 514.5,179.2 515.7,179.2 516.8,179.2 518,216.6 519.1,216.6 520.3,216.6 521.4,214.2 522.6,214.2 523.7,214.2 524.9,214.2 526,214.2 527.2,214.2 528.3,214.2 529.4,214.2 530.6,214.2 531.7,214.2 532.9,214.2 534,226.7 535.2,226.7 536.3,226.7 537.5,226.7 538.6,226.7 539.8,226.7 540.9,232 542.1,232 543.2,232 544.4,232 545.5,232 546.7,232 547.8,232 548.9,226.8 550.1,224 551.2,224 552.4,224 553.5,224 554.7,224 555.8,220.7 557,220.7 558.1,203 559.3,203 560.4,202.2 561.6,202.2 562.7,202.2 563.9,202.2 565,202.2 566.1,197.5 567.3,197.5 568.4,172.4 569.6,172.4 570.7,172.4 571.9,172.4 573,172.4 574.2,172.4 575.3,172.4 576.5,172.4 577.6,157.2 578.8,157.2 579.9,157.2 581.1,157.2 582.2,157.2 583.3,157.2 584.5,157.2 585.6,157.2 586.8,157.2 587.9,157.2 589.1,157.2 590.2,193.9 591.4,193.9 592.5,193.9 593.7,193.9 594.8,194.7 596,194.7 597.1,194.7 598.3,194.7 599.4,194.7 600.6,194.7 601.7,194.7 602.8,194.7 604,182.8 605.1,182.8 606.3,182.8 607.4,182.8 608.6,177.1 609.7,177.1 610.9,177.1 612,177.1 613.2,177.1 614.3,177.1 615.5,177.1 616.6,177.1 617.8,177.1 " />
</g>

<g fill="none" stroke="#000000" stroke-opacity="1" stroke-width="1" stroke-linecap="square" stroke-linejoin="bevel" transform="matrix(1.00313,0,0,1.00313,0,0)"
font-family="Sans Serif" font-size="9" font-weight="400" font-style="normal" 
>
</g>

<g fill="none" stroke="#000000" stroke-opacity="1" stroke-width="1" stroke-linecap="square" stroke-linejoin="bevel" transform="matrix(1.00313,0,0,1.00313,0,0)"
font-family="Sans Serif" font-size="9" font-weight="400" font-style="normal" 
>
</g>

<g fill="none" stroke="#000000" stroke-opacity="1" stroke-width="1" stroke-linecap="round" stroke-linejoin="round" transform="matrix(1.00313,0,0,1.00313,0,0)"
font-family="Sans Serif" font-size="9" font-weight="400" font-style="normal" 
>
<polyline fill="none" vector-effect="none" points="45.5,15.5 45.5,450.5 618.5,450.5 618.5,15.5 45.5,15.5 " />
</g>

<g fill="none" stroke="#000000" stroke-opacity="1" stroke-width="1" stroke-linecap="square" stroke-linejoin="bevel" transform="matrix(1.00313,0,0,1.00313,0,0)"
font-family="Sans Serif" font-size="9" font-weight="400" font-style="normal" 
>
</g>

<g fill="none" stroke="#000000" stroke-opacity="1" stroke-width="1" stroke-linecap="square" stroke-linejoin="bevel" transform="matrix(1,0,0,1,0,0)"
font-family="Sans Serif" font-size="9" font-weight="400" font-style="normal" 
>
</g>
</g>
</svg>
